<svg width="32" height="33" viewBox="0 0 32 33" fill="none" xmlns="http://www.w3.org/2000/svg">
<path d="M31.1919 16.4172C31.1919 24.78 24.4126 31.5593 16.0498 31.5593C7.68706 31.5593 0.907715 24.78 0.907715 16.4172C0.907715 8.05449 7.68706 1.27515 16.0498 1.27515C24.4126 1.27515 31.1919 8.05449 31.1919 16.4172Z" fill="white" stroke="#D73E42"/>
<g clip-path="url(#clip0_167_8990)">
<path d="M15.5033 4.77515C15.1796 4.87988 14.8686 5.0061 14.6332 5.28379C14.1579 5.84507 14.1021 6.70283 14.5034 7.3522C14.5399 7.41182 14.5785 7.46982 14.6302 7.54985C13.0119 8.12671 11.8958 9.24067 11.4387 10.9895C10.9821 12.7356 11.389 14.2965 12.4802 15.6425C12.1002 15.9341 11.6979 16.1973 11.3453 16.5217C10.4068 17.3849 9.85888 18.4908 9.68437 19.7916C9.59305 20.4743 9.79039 21.0791 10.2571 21.5722C10.2997 21.6173 10.3525 21.6517 10.4088 21.6979C10.2612 21.8278 10.1318 21.9267 10.0192 22.0438C9.31352 22.7731 9.20343 23.9183 9.77416 24.768C10.0831 25.2277 10.423 25.6644 10.7568 26.1048C11.0496 26.491 11.4554 26.6726 11.8988 26.7762H12.3848C12.4076 26.7633 12.429 26.744 12.4533 26.7381C13.5547 26.4771 14.164 25.3883 13.8099 24.255C13.6323 23.6868 13.4025 23.1352 13.1696 22.5884C13.0834 22.3859 12.955 22.1544 12.7841 22.0513C12.3686 21.801 12.3321 21.4298 12.3737 21.0023C12.3757 20.9808 12.3737 20.9593 12.3737 20.9378C12.3737 20.549 12.3965 20.5243 12.7638 20.5243C14.8631 20.5243 16.9628 20.5243 19.0621 20.5243C19.1296 20.5243 19.2047 20.5103 19.262 20.5372C19.3274 20.5683 19.4233 20.6349 19.4259 20.6908C19.4416 21.0018 19.4335 21.3144 19.4335 21.6404H19.1687C18.0683 21.6404 16.9679 21.6404 15.8675 21.6404C15.4982 21.6404 15.3029 21.7908 15.3024 22.0701C15.3024 22.3488 15.4982 22.4992 15.8675 22.4998C16.7183 22.5003 17.5686 22.4998 18.4194 22.4998C18.4924 22.4998 18.5655 22.4998 18.6553 22.4998C18.639 22.5562 18.6319 22.59 18.6197 22.6211C18.4305 23.1104 18.2347 23.5971 18.0531 24.0896C17.7522 24.906 17.9136 25.6875 18.4883 26.274C18.7547 26.5458 19.089 26.6683 19.432 26.7751H19.918C20.5754 26.6559 21.0254 26.2311 21.3922 25.6703C21.5647 25.4061 21.7661 25.1633 21.9508 24.9076C22.7067 23.8576 22.5078 22.532 21.483 21.7741C21.4668 21.7618 21.4521 21.7467 21.4272 21.7247C21.5226 21.6151 21.6241 21.5131 21.7108 21.3981C22.1897 20.7601 22.2303 20.0446 22.0446 19.2846C21.6647 17.7249 20.8103 16.5588 19.4827 15.7805C19.4299 15.7494 19.3777 15.7171 19.3305 15.6887C19.5441 15.3562 19.7744 15.0415 19.9611 14.6993C21.2466 12.3468 20.3553 9.18643 18.0764 7.94624C17.3829 7.56865 16.6483 7.41235 15.8807 7.35435C15.3714 7.31621 15.0031 6.81831 15.0503 6.28013C15.0812 5.92617 15.3663 5.64419 15.6996 5.63721C15.9812 5.6313 16.1359 5.76074 16.1953 6.05293C16.249 6.31772 16.4286 6.46221 16.6554 6.42246C16.8827 6.38271 17.0156 6.18613 16.9933 5.9208C16.9517 5.41807 16.6427 5.01577 16.1765 4.85571C16.1004 4.82939 16.0243 4.802 15.9482 4.77568C15.7996 4.77568 15.6509 4.77568 15.5028 4.77568L15.5033 4.77515ZM19.749 12.2743C19.7881 14.4764 18.0693 16.3354 15.9573 16.3756C13.851 16.4159 12.1093 14.6064 12.0677 12.3355C12.0277 10.1264 13.7338 8.2916 15.8797 8.23628C17.9557 8.18257 19.7095 10.013 19.749 12.2748V12.2743ZM12.984 19.6509C12.9728 19.4667 12.9733 19.3088 12.9515 19.1541C12.9226 18.95 12.7607 18.8141 12.5695 18.813C12.3782 18.8114 12.2108 18.9457 12.1819 19.1471C12.1606 19.2948 12.1778 19.4484 12.156 19.5956C12.1443 19.6746 12.1043 19.7712 12.0464 19.8158C11.7354 20.0543 11.5554 20.3588 11.563 20.7751C11.566 20.9523 11.5635 21.1301 11.5635 21.3321C11.4742 21.317 11.4077 21.3127 11.3458 21.2939C10.7614 21.1167 10.3809 20.4802 10.4925 19.8486C10.7802 18.2211 11.6198 17.0465 13.057 16.374C13.126 16.3418 13.2427 16.3515 13.3071 16.3934C15.0432 17.5304 16.7741 17.5304 18.5097 16.3934C18.5741 16.3515 18.6903 16.3429 18.7598 16.3746C19.9844 16.9342 20.7916 17.901 21.1893 19.2449C21.2969 19.6096 21.3968 19.9855 21.3024 20.3819C21.1792 20.9019 20.7094 21.331 20.2482 21.3058C20.2482 21.0941 20.2543 20.8809 20.2467 20.6677C20.235 20.3395 20.1036 20.0613 19.8454 19.8894C19.6724 19.7745 19.6288 19.6407 19.6496 19.4506C19.6552 19.4012 19.6516 19.3507 19.6496 19.3002C19.6379 18.9946 19.4878 18.8141 19.2468 18.8141C19.0073 18.8141 18.8551 18.994 18.8414 19.3007C18.8364 19.4178 18.8404 19.536 18.8404 19.6525H12.984V19.6509ZM20.3959 22.3005C20.8606 22.3177 21.2202 22.5239 21.4425 22.9547C21.6596 23.3758 21.6667 23.8194 21.4085 24.2142C21.098 24.689 20.7596 25.1456 20.405 25.5838C20.1052 25.955 19.5994 26.0141 19.2042 25.7734C18.8151 25.5366 18.6035 25.0312 18.7552 24.5757C18.9383 24.0246 19.1443 23.4794 19.3812 22.9525C19.5765 22.518 19.9494 22.3241 20.3959 22.3005ZM10.2206 23.5498C10.2338 23.451 10.2378 23.35 10.2617 23.2544C10.3977 22.7108 10.7908 22.3601 11.3123 22.3096C11.8212 22.2602 12.2783 22.5443 12.503 23.0809C12.6912 23.5305 12.8612 23.9897 13.0266 24.4495C13.2143 24.9726 13.0403 25.5113 12.6146 25.7724C12.1783 26.0398 11.6543 25.9249 11.3149 25.478C11.0404 25.116 10.7731 24.7481 10.5047 24.3813C10.3266 24.1374 10.2181 23.8656 10.2201 23.5503L10.2206 23.5498Z" fill="#D73E42"/>
<path d="M16.8799 26.7752C17.2157 26.6548 17.5303 26.4975 17.72 26.1575C17.7773 26.0549 17.8286 25.9405 17.8494 25.825C17.8854 25.6268 17.7804 25.4474 17.6135 25.3754C17.4491 25.3045 17.2315 25.3475 17.1488 25.5194C16.9793 25.8728 16.7079 25.9362 16.3726 25.9195C16.0022 25.9013 15.6304 25.9109 15.2595 25.9169C15.0221 25.9206 14.8481 25.8309 14.7248 25.6069C14.5828 25.3497 14.3692 25.2782 14.1657 25.3953C13.9537 25.5172 13.8984 25.7589 14.0237 26.0275C14.1891 26.3809 14.4595 26.6017 14.8085 26.722C14.8516 26.737 14.8927 26.7569 14.9348 26.7746H16.8794L16.8799 26.7752Z" fill="#D73E42"/>
<path d="M14.0877 21.65C13.8711 21.6549 13.689 21.8536 13.6946 22.0792C13.7001 22.3069 13.8873 22.4955 14.104 22.4917C14.3231 22.4879 14.4976 22.2951 14.4936 22.062C14.4895 21.8294 14.3079 21.6452 14.0872 21.65H14.0877Z" fill="#D73E42"/>
<path d="M15.9019 14.9652C16.3579 14.9598 16.7384 14.7777 17.0433 14.4179C17.2092 14.2218 17.2102 13.9742 17.0479 13.8034C16.8921 13.6396 16.6699 13.6417 16.4853 13.8088C16.0256 14.2245 15.7968 14.2234 15.3261 13.804C15.1419 13.6396 14.9172 13.6423 14.7639 13.8093C14.6097 13.978 14.6072 14.2202 14.7645 14.4082C15.0663 14.7691 15.4453 14.9577 15.9019 14.9657V14.9652Z" fill="#D73E42"/>
<path d="M17.4776 11.7039C17.3701 11.7603 17.154 11.8414 16.9729 11.9756C16.7867 12.1137 16.772 12.3667 16.8937 12.5482C17.0241 12.7416 17.2412 12.7888 17.4457 12.6454C17.5603 12.5648 17.6461 12.574 17.7561 12.6492C17.9535 12.7834 18.1676 12.7416 18.2949 12.5611C18.4238 12.3779 18.4035 12.1491 18.2371 11.9805C18.0585 11.7984 17.8388 11.7205 17.4776 11.7039Z" fill="#D73E42"/>
<path d="M13.4388 12.2544C13.4327 12.6186 13.763 12.8415 14.0217 12.6717C14.1714 12.5734 14.2764 12.5734 14.4195 12.676C14.5711 12.7845 14.7736 12.7303 14.8953 12.5853C15.0161 12.4408 15.0293 12.2351 14.9283 12.0702C14.6386 11.5991 13.7868 11.6018 13.5063 12.0771C13.4682 12.1416 13.4515 12.22 13.4388 12.2544Z" fill="#D73E42"/>
</g>
<defs>
<clipPath id="clip0_167_8990">
<rect width="13" height="22" fill="white" transform="matrix(-1 0 0 1 22.4077 4.77515)"/>
</clipPath>
</defs>
</svg>
