<svg width="32" height="33" viewBox="0 0 32 33" fill="none" xmlns="http://www.w3.org/2000/svg">
<path d="M31.25 16.4278C31.25 24.7905 24.4707 31.5699 16.1079 31.5699C7.74517 31.5699 0.96582 24.7905 0.96582 16.4278C0.96582 8.06505 7.74517 1.28571 16.1079 1.28571C24.4707 1.28571 31.25 8.06505 31.25 16.4278Z" fill="white" stroke="#D73E42"/>
<path fill-rule="evenodd" clip-rule="evenodd" d="M16.1079 9.37487C14.2374 9.37487 12.4434 10.1179 11.1207 11.4406C9.79805 12.7633 9.05498 14.5572 9.05498 16.4278C9.05498 17.354 9.23741 18.2711 9.59185 19.1268C9.9463 19.9825 10.4658 20.76 11.1207 21.415C11.7757 22.0699 12.5532 22.5894 13.4089 22.9439C14.2646 23.2983 15.1817 23.4807 16.1079 23.4807C17.0341 23.4807 17.9512 23.2983 18.8069 22.9439C19.6627 22.5894 20.4402 22.0699 21.0951 21.415C21.75 20.76 22.2695 19.9825 22.624 19.1268C22.9784 18.2711 23.1608 17.354 23.1608 16.4278C23.1608 14.5572 22.4178 12.7633 21.0951 11.4406C19.7724 10.1179 17.9785 9.37487 16.1079 9.37487ZM9.87394 10.1938C11.5273 8.54048 13.7697 7.61163 16.1079 7.61163C18.4461 7.61163 20.6885 8.54048 22.3419 10.1938C23.9952 11.8472 24.9241 14.0896 24.9241 16.4278C24.9241 17.5856 24.696 18.732 24.253 19.8016C23.8099 20.8712 23.1605 21.8431 22.3419 22.6618C21.5232 23.4804 20.5513 24.1298 19.4817 24.5729C18.4121 25.0159 17.2657 25.244 16.1079 25.244C14.9502 25.244 13.8037 25.0159 12.7341 24.5729C11.6645 24.1298 10.6926 23.4804 9.87394 22.6618C9.05529 21.8431 8.40589 20.8712 7.96284 19.8016C7.51978 18.732 7.29175 17.5856 7.29175 16.4278C7.29175 14.0896 8.22059 11.8472 9.87394 10.1938ZM13.6143 12.171C14.2757 11.5096 15.1726 11.1381 16.1079 11.1381H16.4561C17.0365 11.1383 17.6082 11.2818 18.1198 11.5557C18.6309 11.8295 19.0667 12.225 19.3885 12.7073C19.3888 12.7077 19.3891 12.7081 19.3893 12.7086L19.4849 12.851C19.7562 13.2554 19.6482 13.8031 19.2439 14.0743C18.8395 14.3455 18.2918 14.2376 18.0206 13.8332L17.9236 13.6886L17.9222 13.6866C17.7613 13.4451 17.5432 13.2471 17.2874 13.1102C17.0317 12.9732 16.7462 12.9015 16.4561 12.9013C16.456 12.9013 16.4563 12.9013 16.4561 12.9013H16.1079C15.6403 12.9013 15.1918 13.0871 14.8611 13.4178C14.5304 13.7484 14.3447 14.1969 14.3447 14.6646V15.5462H16.1079C16.5948 15.5462 16.9895 15.9409 16.9895 16.4278C16.9895 16.9147 16.5948 17.3094 16.1079 17.3094H14.3447V17.9767C14.3447 17.9767 14.3447 17.9767 14.3447 17.9767C14.3447 18.3495 14.2856 18.7194 14.1702 19.0726H18.7528C19.2397 19.0726 19.6344 19.4674 19.6344 19.9543C19.6344 20.4412 19.2397 20.8359 18.7528 20.8359H12.5814C12.2249 20.8359 11.9034 20.6211 11.7669 20.2916C11.6305 19.9622 11.7059 19.583 11.958 19.3309L12.0647 19.2242C12.2285 19.0604 12.3586 18.8659 12.4472 18.6519C12.5359 18.4379 12.5815 18.2085 12.5814 17.9769V17.3094H12.1406C11.6537 17.3094 11.259 16.9147 11.259 16.4278C11.259 15.9409 11.6537 15.5462 12.1406 15.5462H12.5814V14.6646C12.5814 13.7293 12.953 12.8323 13.6143 12.171Z" fill="#D73E42"/>
<path d="M16.4561 12.9013C16.7462 12.9015 17.0317 12.9732 17.2874 13.1102C17.5432 13.2471 17.7613 13.4451 17.9222 13.6866L17.9236 13.6886L18.0206 13.8332C18.2918 14.2376 18.8395 14.3455 19.2439 14.0743C19.6482 13.8031 19.7562 13.2554 19.4849 12.851L19.3894 12.7086C19.3891 12.7081 19.3888 12.7077 19.3885 12.7073C19.0667 12.225 18.6309 11.8295 18.1198 11.5557C17.6082 11.2818 17.0365 11.1383 16.4561 11.1381H16.1079C15.1726 11.1381 14.2757 11.5096 13.6143 12.171C12.953 12.8323 12.5814 13.7293 12.5814 14.6646V15.5462H12.1406C11.6537 15.5462 11.259 15.9409 11.259 16.4278C11.259 16.9147 11.6537 17.3094 12.1406 17.3094H12.5814V17.9769C12.5815 18.2085 12.5359 18.4379 12.4472 18.6519C12.3586 18.8659 12.2285 19.0604 12.0647 19.2242L11.958 19.3309C11.7059 19.583 11.6305 19.9622 11.7669 20.2916C11.9034 20.6211 12.2249 20.8359 12.5814 20.8359H18.7528C19.2397 20.8359 19.6344 20.4412 19.6344 19.9543C19.6344 19.4674 19.2397 19.0726 18.7528 19.0726H14.1702C14.2856 18.7194 14.3447 18.3495 14.3447 17.9767M16.4561 12.9013C16.4563 12.9013 16.456 12.9013 16.4561 12.9013ZM16.4561 12.9013H16.1079C15.6403 12.9013 15.1918 13.0871 14.8611 13.4178C14.5304 13.7484 14.3447 14.1969 14.3447 14.6646V15.5462H16.1079C16.5948 15.5462 16.9895 15.9409 16.9895 16.4278C16.9895 16.9147 16.5948 17.3094 16.1079 17.3094H14.3447V17.9767M14.3447 17.9767C14.3447 17.9767 14.3447 17.9767 14.3447 17.9767ZM11.1207 11.4406C12.4434 10.1179 14.2374 9.37487 16.1079 9.37487C17.9785 9.37487 19.7724 10.1179 21.0951 11.4406C22.4178 12.7633 23.1608 14.5572 23.1608 16.4278C23.1608 17.354 22.9784 18.2711 22.624 19.1268C22.2695 19.9825 21.75 20.76 21.0951 21.415C20.4402 22.0699 19.6626 22.5894 18.8069 22.9439C17.9512 23.2983 17.0341 23.4807 16.1079 23.4807C15.1817 23.4807 14.2646 23.2983 13.4089 22.9439C12.5532 22.5894 11.7757 22.0699 11.1207 21.415C10.4658 20.76 9.9463 19.9825 9.59185 19.1268C9.23741 18.2711 9.05498 17.354 9.05498 16.4278C9.05498 14.5572 9.79805 12.7633 11.1207 11.4406ZM16.1079 7.61163C13.7697 7.61163 11.5273 8.54048 9.87394 10.1938C8.22059 11.8472 7.29175 14.0896 7.29175 16.4278C7.29175 17.5856 7.51978 18.732 7.96284 19.8016C8.40589 20.8712 9.05529 21.8431 9.87394 22.6618C10.6926 23.4804 11.6645 24.1298 12.7341 24.5729C13.8037 25.0159 14.9502 25.244 16.1079 25.244C17.2657 25.244 18.4121 25.0159 19.4817 24.5729C20.5513 24.1298 21.5232 23.4804 22.3419 22.6618C23.1605 21.8431 23.8099 20.8712 24.253 19.8016C24.696 18.732 24.9241 17.5856 24.9241 16.4278C24.9241 14.0896 23.9952 11.8472 22.3419 10.1938C20.6885 8.54048 18.4461 7.61163 16.1079 7.61163Z" stroke="#FFFCFC" stroke-width="0.5" stroke-linecap="round" stroke-linejoin="round"/>
</svg>
